<?xml version="1.0" encoding="UTF-8"?><svg id="b" xmlns="http://www.w3.org/2000/svg" viewBox="0 0 66 31.74"><g id="c"><path d="M4.2.94h3.21S3.21,14.35,3.21,14.35H0S4.2.94,4.2.94ZM13.61,7.55l.65,6.77h2.78S21.23.89,21.23.89h-2.93s-2.12,6.78-2.12,6.78h-.1l-.65-6.77h-2.77s-4.2,13.42-4.2,13.42h2.93s2.12-6.78,2.12-6.78h.1ZM20.9,5.43c.34-1.04,1.05-1.92,1.99-2.47,1.05-.65,2.26-.98,3.49-.96,1.01-.11,2.01.23,2.74.92.55.7.67,1.65.32,2.47l-.95,3.02h-5.36s-.82,2.62-.82,2.62c-.24.78,0,1.16.75,1.16.71.02,1.34-.47,1.48-1.17l.55-1.76h2.93s-.63,2.01-.63,2.01c-.3.98-.95,1.82-1.82,2.36-.98.61-2.12.92-3.27.89-1.02.1-2.05-.22-2.83-.88h0c-.59-.66-.74-1.6-.39-2.41l1.82-5.81ZM23.55,7.04h2.54s.51-1.63.51-1.63h0c.12-.28.1-.6-.07-.86-.22-.22-.53-.34-.84-.3-.37,0-.73.1-1.03.31-.29.21-.51.51-.61.86l-.51,1.61ZM28.71,11.22l1.82-5.81c.34-1.04,1.05-1.92,1.99-2.47,1.05-.65,2.26-.98,3.49-.96,1.01-.11,2.01.23,2.74.92.55.7.67,1.65.32,2.47l-.95,3.02h-5.36s-.82,2.62-.82,2.62c-.24.78,0,1.16.75,1.16.71.02,1.34-.47,1.48-1.17l.55-1.76h2.93s-.63,2.01-.63,2.01c-.3.98-.95,1.82-1.82,2.36-.98.61-2.12.92-3.27.89-1.02.1-2.05-.21-2.84-.88h0c-.59-.66-.74-1.6-.39-2.41ZM33.18,7.03h2.54s.51-1.63.51-1.63h0c.12-.28.1-.61-.07-.86-.22-.22-.53-.34-.84-.3-.37,0-.73.1-1.03.31-.29.21-.51.51-.61.86l-.51,1.62ZM38.28,11.34l1.97-6.28c.25-.87.74-1.65,1.41-2.25.63-.56,1.45-.87,2.29-.86.57-.06,1.15.14,1.56.55.38.55.57,1.21.55,1.87h.1l.34-2.23L47.15,0h3.22s-4.45,14.22-4.45,14.22h-3.4s1.25-2.22,1.25-2.22h-.1c-.46.73-1.06,1.38-1.75,1.9-.56.38-1.22.58-1.9.58-.7.09-1.4-.25-1.75-.86h0c-.29-.73-.28-1.54.01-2.27ZM41.33,11.94c.21.21.5.32.79.28.74.05,1.4-.43,1.58-1.15l1.8-5.73c.24-.76-.05-1.14-.86-1.14-.72-.04-1.37.45-1.55,1.15l-1.8,5.73c-.13.28-.11.6.04.86ZM18.2,27.95c-.1.36-.32.67-.63.88-.32.21-.69.32-1.07.31-.33.04-.67-.07-.92-.29-.19-.26-.22-.6-.09-.89l1.98-6.32c.11-.36.33-.68.64-.89.33-.22.72-.33,1.11-.32.33-.04.66.08.88.32.16.35.16.75,0,1.1l-.49,1.58h3.01s.71-2.28.71-2.28c.36-.81.21-1.76-.38-2.43-.82-.67-1.88-.99-2.94-.88-1.26-.03-2.5.28-3.6.9-.94.52-1.65,1.39-1.97,2.41l-2.28,7.29c-.36.82-.17,1.78.47,2.41h0c.87.66,1.95.97,3.04.87,1.2.02,2.38-.3,3.41-.91.93-.53,1.63-1.38,1.96-2.4l.82-2.63h-2.98s-.67,2.16-.67,2.16ZM32.51,22.57l-1.79,5.73c-.21.66-.57,1.25-1.06,1.74-.53.53-1.15.94-1.85,1.22-.73.3-1.51.45-2.3.45-1.05.1-2.09-.24-2.88-.94h0c-.61-.67-.78-1.63-.43-2.47l1.78-5.69c.34-1.04,1.05-1.92,1.99-2.47,1.05-.65,2.26-.98,3.49-.96.99-.09,1.97.25,2.69.93.58.68.72,1.63.37,2.46ZM29.51,21.72c-.2-.21-.5-.32-.79-.28-.74-.05-1.4.43-1.58,1.15l-1.79,5.73c-.24.76.05,1.15.86,1.14.35,0,.69-.09.97-.29.28-.21.49-.52.58-.86l1.79-5.73c.13-.28.11-.6-.04-.86ZM38.75,21.76l.75-2.41h-1.53s.09-.27.09-.27c.04-.15.13-.27.25-.36.17-.09.35-.13.54-.12h.99l.62-1.98h-1.32c-.85-.04-1.7.13-2.47.51-.56.3-.97.8-1.16,1.4l-.26.83h-1.04l-.75,2.41.93.02-3.03,9.68h3.21s3.03-9.69,3.03-9.69l1.15-.02ZM44.37,21.75l.75-2.41h-1.53l.09-.28c.04-.14.13-.27.25-.35.17-.09.35-.13.54-.12h.99l.62-1.98h-1.32c-.85-.04-1.7.13-2.47.51-.56.3-.97.8-1.16,1.4l-.26.83h-1.04l-.75,2.41.93.02h0s-3.03,9.68-3.03,9.68h3.22s3.03-9.69,3.03-9.69l1.15-.02ZM46,28.15c-.24.78,0,1.16.75,1.16.71.02,1.34-.47,1.48-1.17l.55-1.76h2.93s-.63,2.01-.63,2.01c-.3.98-.95,1.82-1.82,2.36-.98.61-2.12.92-3.27.89-1.02.1-2.05-.22-2.83-.88h0c-.59-.66-.74-1.6-.39-2.41l1.82-5.81c.34-1.04,1.05-1.92,1.99-2.47,1.05-.65,2.26-.98,3.49-.96,1.01-.11,2.01.23,2.74.92.55.7.67,1.65.32,2.47l-.95,3.02h-5.36s-.82,2.62-.82,2.62ZM47.24,24.17h2.54s.51-1.63.51-1.63h0c.12-.28.1-.61-.07-.86-.22-.22-.53-.34-.84-.3-.37,0-.73.1-1.03.31-.29.21-.51.51-.61.86l-.51,1.62ZM58.4,26.36h2.93s-.63,2.01-.63,2.01c-.3.98-.95,1.82-1.82,2.37-.98.61-2.12.92-3.27.89-1.02.1-2.05-.22-2.83-.88h0c-.59-.66-.74-1.6-.39-2.41l1.82-5.81c.34-1.04,1.05-1.92,1.99-2.47,1.05-.65,2.26-.98,3.49-.96,1.01-.11,2.01.23,2.74.92.55.7.67,1.65.32,2.47l-.95,3.02h-5.36s-.82,2.62-.82,2.62c-.24.78,0,1.16.75,1.16.71.02,1.34-.47,1.48-1.17l.55-1.76ZM56.86,24.14h2.54s.51-1.63.51-1.63h0c.12-.28.1-.61-.07-.86-.22-.22-.53-.34-.84-.3-.37,0-.73.1-1.03.31-.29.21-.51.51-.61.86l-.51,1.62ZM64.43,27.21c-.59-.02-1.18.16-1.66.51-.52.45-.88,1.04-1.04,1.7-.26.55-.27,1.19-.03,1.75h0c.32.4.83.6,1.33.53,1.37.02,2.55-.95,2.81-2.29.46-1.47,0-2.2-1.4-2.2Z" style="stroke-width:0px;"/></g></svg>