<?xml version="1.0" encoding="utf-8"?>
<!-- Generator: Adobe Illustrator 28.2.0, SVG Export Plug-In . SVG Version: 6.00 Build 0)  -->
<svg version="1.1" id="Layer_1" xmlns="http://www.w3.org/2000/svg" xmlns:xlink="http://www.w3.org/1999/xlink" x="0px" y="0px"
	 viewBox="0 0 42 42" style="enable-background:new 0 0 42 42;" xml:space="preserve">
<style type="text/css">
	.st0{fill:#FFFFFF;}
</style>
<path class="st0" d="M41.1,36.9c1.2,1.1,1.3,3,0.1,4.2c-1.1,1.2-3,1.3-4.2,0.1c-0.1,0-0.1-0.1-0.1-0.1L21,25.2L5.1,41.1
	c-1.2,1.2-3.1,1.2-4.2,0c-1.2-1.2-1.2-3.1,0-4.2L16.7,21L0.9,5.1C-0.2,3.9-0.2,2,1,0.9c1.2-1.1,2.9-1.1,4.1,0L21,16.7L36.9,0.9
	C38.1-0.2,40-0.2,41.1,1c1.1,1.2,1.1,2.9,0,4.1L25.2,21L41.1,36.9z"/>
</svg>
