<?xml version="1.0" encoding="utf-8"?>
<!-- Generator: Adobe Illustrator 28.2.0, SVG Export Plug-In . SVG Version: 6.00 Build 0)  -->
<svg version="1.1" id="Layer_1" xmlns="http://www.w3.org/2000/svg" xmlns:xlink="http://www.w3.org/1999/xlink" x="0px" y="0px"
	 viewBox="0 0 55.3 55.3" style="enable-background:new 0 0 55.3 55.3;" xml:space="preserve">
<style type="text/css">
	.st0{fill-rule:evenodd;clip-rule:evenodd;fill:#91D1E4;}
</style>
<path class="st0" d="M27.6,0c-7.5,0-8.5,0-11.4,0.2c-2.3,0-4.6,0.5-6.7,1.3C7.7,2.1,6,3.2,4.6,4.6C3.2,6,2.1,7.7,1.5,9.5
	c-0.8,2.1-1.2,4.4-1.3,6.7C0,19.2,0,20.1,0,27.6S0,36.1,0.2,39c0,2.3,0.5,4.6,1.3,6.7c0.7,1.8,1.8,3.5,3.2,4.9
	c1.4,1.4,3,2.5,4.9,3.2c2.1,0.8,4.4,1.2,6.7,1.3c3,0.1,3.9,0.2,11.4,0.2s8.4,0,11.4-0.2c2.3,0,4.6-0.5,6.7-1.3
	c3.7-1.4,6.6-4.4,8.1-8.1c0.8-2.1,1.2-4.4,1.3-6.7c0.1-3,0.2-3.9,0.2-11.4s0-8.5-0.2-11.4c0-2.3-0.5-4.6-1.3-6.7
	C53.1,7.7,52,6,50.6,4.6c-1.4-1.4-3-2.5-4.9-3.2c-2.2-0.8-4.4-1.2-6.7-1.3C36.1,0,35.1,0,27.6,0z M45.7,12.9L45.7,12.9
	c0,1.8-1.5,3.3-3.3,3.3c-1.8,0-3.3-1.5-3.3-3.3c0-1.8,1.5-3.3,3.3-3.3c0,0,0,0,0,0C44.2,9.6,45.7,11.1,45.7,12.9z M27.6,36.9
	L27.6,36.9c-5.1,0-9.2-4.1-9.2-9.2c0-5.1,4.1-9.2,9.2-9.2c5.1,0,9.2,4.1,9.2,9.2c0,0,0,0,0,0C36.8,32.8,32.7,36.9,27.6,36.9z
	 M27.6,13.5L27.6,13.5c7.8,0,14.2,6.4,14.2,14.2s-6.4,14.2-14.2,14.2s-14.2-6.4-14.2-14.2C13.4,19.8,19.8,13.5,27.6,13.5z M27.6,5
	L27.6,5c7.4,0,8.2,0,11.2,0.1c1.8,0,3.5,0.4,5.1,1c1.2,0.4,2.3,1.1,3.2,2.1c0.9,0.9,1.6,2,2.1,3.2c0.6,1.6,1,3.4,1,5.1
	c0.1,2.9,0.2,3.8,0.2,11.2s0,8.3-0.2,11.2c0,1.8-0.4,3.5-1,5.1c-0.9,2.4-2.8,4.3-5.2,5.2c-1.6,0.6-3.4,1-5.1,1
	c-2.9,0.1-3.8,0.2-11.2,0.2s-8.3,0-11.2-0.2c-1.8,0-3.5-0.4-5.1-1c-1.2-0.4-2.3-1.2-3.2-2.1c-0.9-0.9-1.6-2-2.1-3.2
	c-0.6-1.6-1-3.4-1-5.1C5,35.9,5,35,5,27.6s0-8.3,0.2-11.2c0-1.8,0.4-3.5,1-5.1c0.4-1.2,1.1-2.3,2-3.2c0.9-0.9,2-1.6,3.2-2.1
	c1.6-0.6,3.4-1,5.1-1C19.4,5,20.3,5,27.6,5L27.6,5z"/>
</svg>
