<?xml version="1.0" encoding="UTF-8"?><svg id="Capa_1" xmlns="http://www.w3.org/2000/svg" viewBox="0 0 512.79 246.56"><defs><style>.cls-1{stroke-width:0px;}</style></defs><path class="cls-1" d="m0,111.53L32.62,7.31l24.98-.07L24.98,111.46l-24.98.07Z"/><path class="cls-1" d="m65.68,111.35L98.3,7.12l21.56-.06,5.08,52.59h.81s16.48-52.65,16.48-52.65l22.77-.06-32.62,104.23-21.56.06-5.08-52.59h-.81s-16.48,52.65-16.48,52.65l-22.76.06Z"/><path class="cls-1" d="m151.28,106.04c-4.47-4.59-5.47-10.82-3-18.7l14.13-45.13c2.46-7.88,7.62-14.28,15.47-19.21,7.85-4.93,16.88-7.41,27.09-7.44,10.07-.03,17.18,2.36,21.32,7.15,4.14,4.8,4.95,11.18,2.46,19.16l-7.35,23.49-41.66-.04-6.39,20.42c-1.89,6.04.05,9.05,5.83,9.03,5.77-.02,9.61-3.04,11.5-9.08l4.28-13.66,22.77-.06-4.9,15.66c-2.4,7.67-7.11,13.8-14.1,18.37-7,4.57-15.47,6.87-25.41,6.9-10.21.03-17.55-2.25-22.02-6.84Zm55.45-63.95c.89-2.86.72-5.09-.53-6.67-1.25-1.58-3.42-2.37-6.51-2.36-3.09,0-5.76.81-8,2.4s-3.81,3.82-4.71,6.68l-3.94,12.59,19.74-.06,3.94-12.59Z"/><path class="cls-1" d="m226.03,105.83c-4.47-4.59-5.47-10.82-3-18.7l14.12-45.13c2.47-7.88,7.62-14.28,15.48-19.21,7.85-4.93,16.88-7.41,27.09-7.44,10.07-.03,17.18,2.36,21.32,7.15,4.14,4.8,4.95,11.18,2.46,19.16l-7.35,23.49-41.66-.04-6.39,20.42c-1.89,6.04.05,9.05,5.83,9.03,5.77-.02,9.61-3.04,11.5-9.08l4.28-13.66,22.77-.06-4.9,15.66c-2.4,7.67-7.11,13.8-14.1,18.37-7,4.57-15.47,6.87-25.41,6.9-10.21.03-17.55-2.25-22.02-6.84Zm55.45-63.95c.9-2.86.72-5.09-.53-6.67-1.25-1.58-3.42-2.37-6.51-2.36-3.09,0-5.76.81-8,2.4-2.25,1.59-3.81,3.82-4.71,6.68l-3.94,12.59,19.74-.06,3.94-12.59Z"/><path class="cls-1" d="m297.3,105.78c-2.22-4.49-2.19-10.37.09-17.64l15.28-48.81c2.28-7.27,5.91-13.1,10.92-17.51,5-4.41,10.93-6.63,17.78-6.65,5.64-.01,9.69,1.41,12.15,4.26,2.46,2.86,3.89,7.71,4.3,14.56h.81s2.61-17.34,2.61-17.34L366.42.07l24.98-.07-34.6,110.52-26.39.07,9.66-17.36h-.81c-4.7,6.87-9.23,11.79-13.58,14.76-4.35,2.98-9.28,4.47-14.79,4.49-6.85.02-11.38-2.22-13.6-6.71Zm23.48-19.7c-.93,2.97-.82,5.19.33,6.67,1.15,1.48,3.2,2.21,6.15,2.21,6.31-.02,10.4-2.99,12.26-8.93l13.93-44.51c1.86-5.93-.37-8.89-6.69-8.88-2.95,0-5.47.76-7.54,2.25-2.08,1.49-3.58,3.72-4.51,6.68l-13.93,44.51Z"/><path class="cls-1" d="m98.16,239.73c-4.87-4.59-6.07-10.82-3.61-18.7l17.73-56.64c2.47-7.88,7.57-14.13,15.33-18.75,7.75-4.62,17.07-6.95,27.95-6.98,10.74-.03,18.35,2.25,22.82,6.83,4.47,4.59,5.45,10.87,2.96,18.86l-5.53,17.65-23.37.07,3.84-12.28c1.25-3.99,1.26-6.83.05-8.51-1.22-1.68-3.51-2.52-6.86-2.51-3.36,0-6.23.84-8.63,2.48-2.39,1.64-4.05,3.95-4.98,6.91l-15.38,49.12c-.96,3.07-.74,5.37.66,6.9,1.4,1.53,3.78,2.29,7.14,2.28,3.22,0,5.99-.81,8.3-2.4,2.31-1.59,3.93-3.87,4.86-6.84l5.24-16.73,23.17-.07-6.39,20.42c-2.43,7.78-7.5,14-15.21,18.68-7.7,4.67-16.53,7.02-26.47,7.05-10.88.03-18.75-2.25-23.63-6.83Z"/><path class="cls-1" d="m175.77,239.04c-4.71-4.9-5.83-11.28-3.36-19.16l13.84-44.21c2.47-7.88,7.62-14.28,15.47-19.21,7.85-4.93,16.88-7.41,27.09-7.44,9.54-.03,16.5,2.38,20.89,7.23,4.39,4.84,5.35,11.2,2.88,19.08l-13.93,44.51c-1.57,5.02-4.32,9.52-8.26,13.52-3.94,4-8.72,7.16-14.34,9.47-5.63,2.32-11.59,3.48-17.9,3.5-10.21.03-17.67-2.4-22.38-7.3Zm21.17-19.08c-1.86,5.94.37,8.89,6.68,8.88,2.95,0,5.47-.76,7.55-2.24,2.08-1.49,3.58-3.72,4.51-6.69l13.93-44.51c.93-2.97.82-5.19-.33-6.67-1.15-1.48-3.2-2.22-6.15-2.21-6.32.02-10.4,3-12.26,8.93l-13.93,44.51Z"/><path class="cls-1" d="m267.15,169.31l-7.21-.13,5.86-18.73,8.06-.02,2.02-6.45c1.44-4.61,4.45-8.22,9.03-10.84,4.57-2.62,10.96-3.94,19.16-3.97l10.27-.03-4.8,15.35-7.66.02c-1.88,0-3.29.31-4.22.93-.93.62-1.59,1.54-1.97,2.77l-.67,2.15,11.89-.04-5.86,18.73-8.91.18-23.54,75.21-24.98.07,23.54-75.21Z"/><path class="cls-1" d="m310.87,169.19l-7.21-.13,5.86-18.73,8.06-.02,2.02-6.45c1.44-4.61,4.45-8.22,9.03-10.84,4.57-2.62,10.96-3.94,19.16-3.97l10.27-.03-4.8,15.35-7.66.02c-1.88,0-3.29.31-4.22.93-.93.62-1.59,1.54-1.97,2.76l-.67,2.15,11.89-.03-5.86,18.73-8.91.18-23.54,75.21-24.98.07,23.54-75.21Z"/><path class="cls-1" d="m335.3,239.05c-4.47-4.59-5.47-10.82-3-18.7l14.13-45.13c2.47-7.88,7.62-14.28,15.47-19.21,7.85-4.93,16.88-7.41,27.09-7.44,10.07-.03,17.18,2.36,21.32,7.15,4.14,4.8,4.95,11.18,2.46,19.16l-7.35,23.49-41.66-.04-6.39,20.42c-1.89,6.04.05,9.05,5.83,9.03,5.77-.02,9.61-3.04,11.5-9.08l4.27-13.66,22.77-.06-4.9,15.66c-2.4,7.67-7.1,13.8-14.1,18.37-7,4.57-15.47,6.87-25.41,6.9-10.21.03-17.55-2.25-22.02-6.84Zm55.45-63.96c.9-2.86.72-5.09-.53-6.67-1.25-1.58-3.42-2.37-6.51-2.36-3.09,0-5.76.81-8,2.4-2.24,1.59-3.81,3.82-4.71,6.68l-3.94,12.59,19.74-.06,3.94-12.59Z"/><path class="cls-1" d="m410.05,238.84c-4.47-4.59-5.47-10.82-3-18.7l14.13-45.13c2.47-7.88,7.62-14.28,15.47-19.21,7.85-4.93,16.88-7.41,27.09-7.44,10.07-.03,17.18,2.36,21.32,7.15,4.14,4.8,4.95,11.18,2.46,19.16l-7.35,23.49-41.66-.04-6.39,20.42c-1.89,6.04.05,9.05,5.83,9.03,5.77-.02,9.61-3.04,11.5-9.08l4.28-13.66,22.77-.06-4.9,15.66c-2.4,7.67-7.11,13.8-14.1,18.37-7,4.57-15.47,6.87-25.41,6.9-10.21.03-17.55-2.25-22.01-6.84Zm55.45-63.96c.9-2.86.72-5.09-.53-6.67-1.25-1.58-3.42-2.37-6.51-2.36-3.09,0-5.76.81-8,2.4-2.24,1.59-3.81,3.82-4.71,6.68l-3.94,12.59,19.74-.06,3.94-12.59Z"/><path class="cls-1" d="m479.29,242.24c-1.79-2.77-1.7-7.31.27-13.61,1.93-6.15,4.63-10.54,8.11-13.18,3.48-2.63,7.78-3.96,12.9-3.97,10.83-.03,14.46,5.66,10.89,17.06-3.71,11.85-10.98,17.8-21.81,17.83-5.13.01-8.58-1.36-10.37-4.13Z"/></svg>